<svg width="118" height="62" viewBox="0 0 118 62" fill="none" xmlns="http://www.w3.org/2000/svg">
<path d="M7.89926 15.7395L7.10161 19.7261H15.0523L14.2547 23.6869H6.3297L5.1461 29.8998H0L3.60227 11.7787H17.754L16.9564 15.7395H7.89926Z" fill="#15FF73"/>
<path d="M18.2429 11.7787H23.389L19.7868 29.8998H14.6407L18.2429 11.7787Z" fill="#15FF73"/>
<path d="M28.6123 15.843H23.0802L23.9036 11.7787H40.0366L39.2132 15.843H33.7069L30.8766 29.8998H25.7305L28.6123 15.843Z" fill="#15FF73"/>
<path d="M43.9477 19.9591L47.1511 25.3048L48.5791 18.0952L44.771 11.7787H40.577L36.9747 29.8998H41.9664L43.9477 19.9591Z" fill="#15FF73"/>
<path d="M71.9167 43.8401C70.9812 45.0602 69.6973 45.9634 68.2373 46.4288L71.2992 51.8651H65.973L63.297 47.0889H60.724L59.7719 51.904H54.6258L58.2281 33.7829H65.9472C67.8522 33.6626 69.7407 34.2015 71.2992 35.3102C71.9288 35.8149 72.43 36.4632 72.7611 37.2015C73.0922 37.9398 73.2438 38.7468 73.2032 39.5558C73.248 41.0865 72.7964 42.5903 71.9167 43.8401V43.8401ZM67.3367 38.3779C66.7197 37.9712 65.9887 37.776 65.2525 37.8213H62.5765L61.4959 43.1282H64.5321C65.457 43.1746 66.3684 42.8903 67.1051 42.3257C67.4183 42.0393 67.664 41.6861 67.8242 41.292C67.9845 40.8979 68.0553 40.4728 68.0314 40.0476C68.0614 39.7332 68.0136 39.4163 67.8924 39.125C67.7712 38.8337 67.5803 38.577 67.3367 38.3779V38.3779Z" fill="#FFFB34"/>
<path d="M78.7095 37.8472H73.1775L74.0009 33.7829H90.1339L89.3105 37.8472H83.8042L81.051 51.904H75.9049L78.7095 37.8472Z" fill="#FFFB34"/>
<path d="M96.5665 48.3833H88.8474L86.8147 51.904H81.437L93.0157 33.7829H98.0331L102.382 51.904H97.287L96.5665 48.3833ZM95.7946 44.6037L94.5853 38.7273L91.1374 44.6037H95.7946Z" fill="#FFFB34"/>
<path d="M107.09 33.7829H112.236L109.355 47.8914H117.949L117.125 51.9557H103.488L107.09 33.7829Z" fill="#FFFB34"/>
<path d="M54.6644 37.2518C53.9215 36.0266 52.8395 35.0459 51.551 34.4301C50.8543 34.0764 50.1147 33.8153 49.3511 33.6534L48.4762 38.0802C48.8542 38.238 49.1991 38.4664 49.4926 38.7532C49.8726 39.1373 50.1685 39.5971 50.3613 40.1032C50.5541 40.6092 50.6394 41.1502 50.6119 41.6914C50.6244 42.788 50.3867 43.8729 49.9171 44.8626C49.4783 45.7948 48.7928 46.5875 47.9359 47.1536C47.5093 47.4298 47.0458 47.6433 46.5593 47.7879L45.6845 52.1887C47.309 52.0851 48.8947 51.6444 50.3417 50.8944C52.0083 50.0041 53.3909 48.658 54.3299 47.0113C55.2939 45.3092 55.7871 43.3784 55.758 41.4196C55.7917 39.9544 55.4125 38.5094 54.6644 37.2518Z" fill="#FFFB34"/>
<path d="M29.9503 35.3102C30.5824 35.8243 31.0845 36.4817 31.4155 37.2287C31.7465 37.9756 31.8968 38.7908 31.8543 39.6075C31.9002 41.0103 31.5228 42.3942 30.7719 43.5771C30.021 44.76 28.9317 45.6865 27.6474 46.2346C26.1675 46.8831 24.5654 47.201 22.9516 47.1666H19.2979L18.3716 51.9039H13.2255L16.8277 33.7829H24.444C26.3998 33.6348 28.3461 34.1747 29.9503 35.3102V35.3102ZM25.7948 42.3257C26.1042 42.0369 26.3465 41.683 26.5044 41.2893C26.6623 40.8955 26.7319 40.4715 26.7082 40.0476C26.7314 39.7301 26.6767 39.4118 26.5488 39.1206C26.4209 38.8294 26.2238 38.5744 25.9749 38.3779C25.3551 37.9667 24.6186 37.7712 23.8779 37.8213H21.2019L20.147 43.1282H23.1574C24.1048 43.1962 25.0438 42.9105 25.7948 42.3257V42.3257Z" fill="#15FF73"/>
<path d="M41.8249 52.2017L42.6997 47.8008C42.1763 47.9481 41.6351 48.0222 41.0916 48.0209C40.5242 48.0533 39.956 47.9728 39.4196 47.784C38.8831 47.5952 38.389 47.3018 37.9653 46.9207C37.5886 46.5396 37.2946 46.084 37.1019 45.5827C36.9093 45.0814 36.8221 44.5453 36.8461 44.0084C36.8317 42.9116 37.0695 41.8263 37.5408 40.8372C37.9796 39.905 38.6651 39.1123 39.522 38.5462C40.3925 37.9689 41.4128 37.6628 42.4553 37.666C43.181 37.6531 43.9009 37.7989 44.5652 38.0931L45.4915 33.6535C44.6448 33.4803 43.7824 33.3979 42.9184 33.4075C40.8898 33.3721 38.8851 33.8529 37.0905 34.8054C35.4239 35.6957 34.0413 37.0418 33.1023 38.6885C32.1383 40.3906 31.6451 42.3214 31.6742 44.2802C31.6454 45.7367 32.0243 47.172 32.7678 48.4221C33.5147 49.644 34.5956 50.6236 35.8812 51.2439C37.3644 51.946 38.9896 52.2916 40.6284 52.2535C41.053 52.2664 41.4389 52.2276 41.8249 52.2017Z" fill="#15FF73"/>
<path d="M66.4876 15.7395L65.8958 18.7942H73.8979L73.1518 22.6772H65.1238L64.4806 25.8873H73.9237L73.1003 29.848H58.6655L62.2678 11.7269H76.4195L75.6219 15.6877L66.4876 15.7395Z" fill="#FFFB34"/>
<path d="M77.0628 29.7703C75.9049 29.4873 74.801 29.015 73.795 28.3724L75.802 24.4893C76.7074 25.0533 77.6858 25.4888 78.7095 25.7837C79.7125 26.0797 80.752 26.2322 81.7972 26.2367C82.573 26.3009 83.3529 26.1812 84.0743 25.8873C84.3097 25.793 84.5122 25.631 84.6563 25.4214C84.8005 25.2119 84.88 24.9642 84.8849 24.7094C84.8789 24.4861 84.8056 24.2699 84.6746 24.0896C84.5436 23.9092 84.3612 23.7733 84.1515 23.6998C83.4188 23.3685 82.6563 23.1085 81.8744 22.9232C80.8877 22.6762 79.9167 22.3693 78.9668 22.0042C78.197 21.6813 77.5138 21.1801 76.9727 20.5415C76.3927 19.8084 76.0956 18.889 76.1365 17.9528C76.0962 16.7108 76.4673 15.4906 77.1914 14.4839C77.9601 13.4559 79.0045 12.6701 80.2019 12.2188C81.6613 11.6509 83.2177 11.3782 84.7819 11.4163C85.9943 11.4059 87.2035 11.5406 88.3842 11.8175C89.4013 12.0391 90.3751 12.4284 91.266 12.9695L89.4134 16.8267C88.6931 16.3692 87.908 16.0245 87.0848 15.8042C86.2461 15.5746 85.381 15.4571 84.5118 15.4547C83.6895 15.4087 82.8694 15.5782 82.1317 15.9465C81.8795 16.056 81.6641 16.2364 81.5112 16.466C81.3583 16.6955 81.2745 16.9646 81.2697 17.2409C81.2768 17.4688 81.3517 17.6894 81.4847 17.874C81.6178 18.0586 81.8028 18.1988 82.0159 18.2764C82.7668 18.5947 83.5411 18.8544 84.3317 19.053C85.3173 19.2835 86.2847 19.5863 87.2263 19.9591C87.9873 20.2665 88.6627 20.7551 89.1947 21.3829C89.7692 22.0882 90.0627 22.9831 90.0181 23.8939C90.0035 25.0799 89.6162 26.2307 88.9117 27.1816C88.1286 28.2059 87.0772 28.9904 85.8755 29.4468C84.4183 30.0062 82.8678 30.2787 81.3083 30.2493C79.8784 30.2782 78.4509 30.1171 77.0628 29.7703V29.7703Z" fill="#FFFB34"/>
<path d="M92.3467 29.7704C91.1888 29.4873 90.0849 29.015 89.0789 28.3724L91.0859 24.4894C91.9913 25.0533 92.9697 25.4888 93.9934 25.7837C94.9964 26.0797 96.0359 26.2322 97.0811 26.2367C97.8569 26.3009 98.6368 26.1812 99.3582 25.8873C99.5936 25.793 99.796 25.631 99.9402 25.4214C100.084 25.2119 100.164 24.9642 100.169 24.7094C100.163 24.4861 100.09 24.2699 99.9585 24.0896C99.8275 23.9092 99.6451 23.7733 99.4354 23.6998C98.7027 23.3685 97.9402 23.1085 97.1583 22.9232C96.1716 22.6762 95.2006 22.3693 94.2507 22.0042C93.4809 21.6813 92.7977 21.1801 92.2566 20.5415C91.6766 19.8084 91.3795 18.889 91.4204 17.9528C91.3943 16.7328 91.7647 15.5376 92.4753 14.5486C93.244 13.5207 94.2885 12.7348 95.4858 12.2835C96.9452 11.7157 98.5016 11.443 100.066 11.481C101.278 11.4707 102.487 11.6054 103.668 11.8823C104.685 12.1039 105.659 12.4931 106.55 13.0342L104.697 16.8267C103.977 16.3693 103.192 16.0245 102.369 15.8042C101.53 15.5746 100.665 15.4571 99.7957 15.4547C98.9734 15.4087 98.1533 15.5782 97.4156 15.9466C97.1634 16.0561 96.948 16.2364 96.7951 16.466C96.6422 16.6956 96.5584 16.9646 96.5536 17.2409C96.5607 17.4688 96.6356 17.6894 96.7686 17.874C96.9017 18.0586 97.0867 18.1988 97.2998 18.2764C98.0507 18.5947 98.825 18.8544 99.6155 19.053C100.601 19.2835 101.569 19.5863 102.51 19.9591C103.271 20.2665 103.947 20.7551 104.479 21.3829C105.053 22.0882 105.347 22.9831 105.302 23.8939C105.291 25.0784 104.908 26.2291 104.208 27.1816C103.425 28.206 102.374 28.9904 101.172 29.4468C99.715 30.0062 98.1645 30.2787 96.6051 30.2493C95.1708 30.2793 93.7389 30.1183 92.3467 29.7704Z" fill="#FFFB34"/>
<path d="M56.5556 11.7787L54.6001 21.6935L52.4387 18.0952L51.0107 25.3048L53.751 29.8998H57.945L61.5473 11.7787H56.5556Z" fill="#FFFB34"/>
<path d="M40.2039 62L52.413 0H51.1007L38.8916 62H40.2039Z" fill="#15FF73"/>
<path d="M44.102 62L56.3112 0H54.9989L42.7898 62H44.102Z" fill="#FFFB34"/>
</svg>
